<?xml version="1.0" standalone="no"?>
<!DOCTYPE svg PUBLIC "-//W3C//DTD SVG 20010904//EN"
 "http://www.w3.org/TR/2001/REC-SVG-20010904/DTD/svg10.dtd">
<svg version="1.0" xmlns="http://www.w3.org/2000/svg"
 width="1024.000000pt" height="1024.000000pt" viewBox="0 0 1024.000000 1024.000000"
 preserveAspectRatio="xMidYMid meet">

<g transform="translate(0.000000,1024.000000) scale(0.100000,-0.100000)"
fill="#000000" stroke="none">
<path d="M7641 7600 c-35 -21 -121 -65 -190 -97 -112 -51 -272 -131 -594 -298
l-97 -50 -33 19 c-17 11 -56 33 -86 49 l-54 30 -51 -18 c-174 -62 -543 -217
-871 -368 -671 -307 -1521 -684 -2060 -912 -533 -225 -653 -281 -820 -380 -79
-47 -407 -212 -580 -292 -49 -23 -130 -60 -180 -83 -49 -23 -191 -87 -315
-142 -124 -55 -235 -106 -246 -113 -16 -10 -25 -32 -33 -77 -18 -98 -34 -653
-26 -862 l7 -187 72 -59 c39 -33 171 -124 293 -204 122 -80 312 -212 421 -294
208 -156 676 -472 879 -593 107 -64 122 -70 160 -66 48 5 169 62 698 329 339
171 722 350 1165 545 118 52 233 103 255 113 22 10 229 99 460 198 231 99 490
212 575 250 189 85 510 229 975 437 193 87 414 186 492 220 77 35 162 77 188
95 47 32 100 104 110 150 5 21 58 55 295 190 160 91 310 180 335 198 64 46 62
70 -20 176 l-64 85 29 31 c48 51 41 80 -34 159 l-65 66 40 36 c58 53 54 76
-31 164 l-70 72 60 37 c52 32 60 41 60 68 0 40 -31 88 -87 136 l-45 39 118 64
c132 71 164 94 164 115 0 18 -75 99 -216 234 -60 57 -161 154 -224 215 -63 60
-205 193 -315 294 -110 102 -233 215 -273 253 -41 37 -81 68 -90 68 -9 -1 -46
-18 -81 -40z m123 -107 c24 -21 119 -110 212 -198 204 -193 421 -396 607 -570
126 -118 151 -145 129 -145 -20 0 -956 882 -990 933 -19 27 -3 20 42 -20z m39
-189 c187 -185 215 -211 575 -543 133 -123 242 -225 242 -227 0 -1 -46 -29
-102 -60 -151 -85 -356 -206 -492 -291 l-119 -75 -61 59 c-262 253 -471 445
-806 743 -107 95 -196 176 -198 179 -1 4 62 40 140 80 79 40 158 83 177 94 47
29 454 216 464 213 5 -1 86 -78 180 -172z m-1044 -268 c186 -149 862 -769
1100 -1010 107 -107 122 -126 105 -132 -31 -11 -327 -147 -479 -219 -465 -223
-748 -345 -762 -331 -3 2 -26 -7 -51 -21 -26 -13 -67 -33 -92 -43 -25 -10
-169 -75 -320 -145 -151 -70 -473 -213 -715 -317 -242 -105 -654 -283 -915
-395 -261 -113 -536 -231 -610 -263 -351 -150 -417 -178 -594 -251 -105 -44
-194 -79 -198 -79 -12 0 -491 301 -1173 735 -134 86 -475 326 -475 335 0 3 46
25 103 50 435 189 953 436 1131 540 153 88 329 174 546 265 821 346 1671 722
2490 1100 176 81 355 157 515 219 66 26 140 55 165 65 l45 18 48 -25 c26 -14
87 -57 136 -96z m1800 -760 c22 -22 31 -39 25 -45 -27 -26 -497 -301 -514
-301 -5 0 -10 3 -10 8 0 4 -21 29 -46 56 -25 26 -44 49 -42 51 10 9 197 123
337 206 l164 98 26 -19 c14 -10 42 -34 60 -54z m1 -272 c50 -51 53 -57 37 -67
-10 -7 -60 -39 -110 -71 -127 -82 -316 -186 -341 -189 -18 -2 -21 5 -28 63 -4
36 -10 75 -13 87 -5 20 5 28 82 67 49 24 133 72 188 105 55 33 107 60 115 61
9 0 40 -25 70 -56z m-531 -261 c6 -43 16 -157 21 -253 6 -96 17 -235 25 -308
16 -144 11 -196 -26 -262 -29 -51 -62 -70 -301 -176 -207 -93 -385 -172 -788
-354 -494 -222 -861 -385 -1045 -463 -229 -97 -496 -212 -540 -232 -16 -8
-147 -66 -290 -129 -143 -63 -348 -155 -455 -204 -107 -49 -238 -109 -290
-132 -52 -24 -257 -125 -456 -224 -509 -256 -623 -311 -628 -305 -9 9 -9 1030
0 1039 5 4 115 52 244 105 256 106 851 360 1435 613 204 88 537 232 740 320
204 88 469 206 590 262 300 140 370 170 526 228 163 61 249 99 614 272 307
146 596 279 606 280 4 0 12 -35 18 -77z m585 -2 l59 -59 -39 -24 c-72 -45
-459 -267 -476 -274 -16 -6 -18 3 -18 89 l0 95 125 66 c68 36 159 88 202 115
43 27 80 50 83 50 3 1 32 -26 64 -58z m57 -258 c24 -31 47 -63 52 -70 5 -8
-13 -26 -55 -54 -60 -39 -481 -279 -491 -279 -4 0 -21 146 -22 188 0 13 439
271 461 272 7 0 31 -26 55 -57z m-6906 -831 c65 -47 979 -631 1232 -787 62
-38 109 -73 105 -77 -4 -4 -116 -28 -247 -52 -132 -24 -283 -54 -336 -67 l-95
-22 -245 168 -245 169 -167 385 c-92 212 -167 390 -167 394 0 9 20 -5 165
-111z m-172 -102 c42 -96 106 -245 142 -330 37 -85 63 -156 58 -157 -5 -2 -73
-39 -150 -82 l-141 -78 -6 36 c-14 85 -1 810 15 794 4 -4 41 -87 82 -183z
m461 -761 c244 -179 337 -240 355 -235 49 14 134 27 145 23 8 -3 34 -38 58
-79 172 -280 211 -347 272 -458 38 -69 89 -151 113 -182 24 -32 42 -58 38 -58
-8 0 -449 289 -555 364 -47 33 -139 101 -205 151 -178 135 -271 200 -465 325
-96 62 -196 129 -222 148 l-47 36 146 82 147 83 21 -34 c12 -22 88 -84 199
-166z m1110 -586 c3 -227 3 -413 -2 -413 -15 1 -134 174 -188 273 -66 121
-195 338 -271 456 -30 46 -52 85 -49 88 2 3 111 24 241 48 130 23 239 46 243
50 14 14 20 -99 26 -502z"/>
<path d="M4571 6180 c-76 -42 -108 -68 -211 -171 -121 -121 -199 -225 -275
-364 -21 -38 -41 -72 -45 -75 -11 -8 -51 -90 -44 -90 4 0 2 -6 -4 -13 -22 -26
-26 -121 -7 -176 10 -30 14 -60 9 -73 -4 -13 -8 -30 -9 -38 -11 -85 -13 -88
-108 -139 -50 -27 -135 -64 -189 -82 -76 -25 -98 -37 -98 -51 0 -10 5 -18 11
-18 31 0 202 66 308 120 l121 60 80 -31 c57 -23 87 -41 105 -64 43 -57 120
-106 203 -129 70 -19 102 -21 342 -20 239 0 274 2 359 22 77 19 222 72 240 88
14 12 -25 24 -109 34 -254 28 -291 35 -600 102 -265 58 -329 60 -425 13 l-57
-28 -53 19 -53 18 56 40 c32 22 75 54 97 72 33 26 55 34 120 43 44 7 89 16
100 21 11 5 103 21 205 35 102 14 264 40 360 56 96 17 213 37 260 44 l85 14
-71 -4 c-39 -3 -148 -18 -241 -34 -93 -16 -252 -41 -353 -55 -102 -15 -195
-29 -208 -32 -23 -5 -23 -4 7 39 55 81 100 96 386 133 293 38 350 43 562 43
284 1 553 -42 627 -100 15 -12 25 -24 22 -27 -7 -6 13 -32 25 -32 5 0 9 8 9
18 0 36 -90 87 -187 107 -21 5 -45 10 -53 12 -20 5 -67 12 -115 18 -22 3 -56
8 -75 11 -130 19 -474 13 -625 -11 -70 -11 -102 -15 -140 -20 -22 -2 -54 -6
-70 -9 -17 -3 -52 -8 -80 -11 -179 -19 -239 -43 -291 -116 -29 -40 -41 -48
-77 -54 -23 -3 -57 -9 -74 -12 -18 -3 -33 -3 -33 -1 0 11 40 47 113 102 67 51
84 59 120 59 48 -1 118 17 168 43 44 22 148 103 378 295 103 85 196 159 207
163 10 4 80 29 154 56 182 64 307 93 403 92 42 0 77 4 77 9 0 29 -198 69 -343
70 -127 1 -298 -37 -427 -94 -103 -47 -294 -156 -368 -210 -249 -186 -297
-237 -309 -337 -7 -59 -28 -86 -108 -139 -23 -14 -65 -51 -94 -83 -48 -52
-155 -139 -225 -184 l-28 -18 7 45 c11 73 15 80 61 100 59 25 139 107 191 194
22 39 42 73 42 77 1 4 19 41 41 83 21 41 36 75 32 75 -4 0 -1 4 6 8 7 5 14 19
17 32 2 12 30 68 62 124 32 55 68 121 80 146 24 53 109 186 123 195 19 12 10
25 -17 25 -16 0 -52 -14 -82 -30z m40 -52 c-43 -65 -87 -145 -195 -353 -17
-33 -51 -103 -75 -155 -95 -204 -166 -301 -253 -344 -28 -14 -54 -24 -56 -21
-5 5 84 188 163 333 31 56 54 102 51 102 -13 0 -162 -273 -206 -378 l-27 -63
-13 46 c-21 74 -8 152 37 237 98 182 116 209 204 318 112 139 256 272 341 315
39 19 72 35 73 35 2 0 -18 -33 -44 -72z m1109 16 c51 -9 108 -21 128 -28 34
-12 34 -12 -29 -13 -107 -2 -269 -44 -517 -136 -40 -14 -103 -60 -242 -176
-367 -306 -423 -339 -545 -329 l-40 3 1 54 c3 95 77 177 300 331 103 70 317
191 399 225 96 39 295 83 381 84 39 1 112 -6 164 -15z m-1230 -1049 c36 -7
124 -27 195 -44 151 -34 422 -81 471 -81 18 0 68 -5 110 -11 l77 -12 -64 -29
c-140 -64 -355 -94 -599 -84 -195 7 -300 30 -373 80 -44 31 -118 106 -103 106
3 0 60 -13 127 -30 125 -30 229 -48 218 -36 -3 3 -30 10 -60 16 -30 5 -113 24
-186 41 l-132 32 47 25 c82 44 160 52 272 27z"/>
<path d="M4273 5748 c-12 -16 -24 -48 -18 -48 2 0 11 14 20 30 16 31 15 40 -2
18z"/>
<path d="M5110 5949 c0 -5 5 -7 10 -4 6 3 10 8 10 11 0 2 -4 4 -10 4 -5 0 -10
-5 -10 -11z"/>
<path d="M5080 5929 c0 -5 5 -7 10 -4 6 3 10 8 10 11 0 2 -4 4 -10 4 -5 0 -10
-5 -10 -11z"/>
<path d="M5022 5898 c-18 -11 -31 -23 -28 -25 5 -5 76 35 76 43 0 8 -15 2 -48
-18z"/>
<path d="M4960 5855 c-7 -9 -11 -18 -8 -20 3 -3 11 1 18 10 7 9 11 18 8 20 -3
3 -11 -1 -18 -10z"/>
<path d="M4907 5818 c-15 -11 -27 -16 -27 -11 0 4 -4 3 -8 -3 -4 -6 -38 -34
-77 -64 -38 -29 -77 -59 -85 -66 -11 -10 -188 -157 -229 -191 -2 -1 -2 -6 2
-9 4 -5 257 198 315 253 7 7 17 13 21 13 4 0 18 10 31 23 14 12 27 22 30 22
11 0 65 44 60 48 -3 3 -17 -4 -33 -15z"/>
<path d="M4560 4950 c0 -5 5 -10 10 -10 6 0 10 5 10 10 0 6 -4 10 -10 10 -5 0
-10 -4 -10 -10z"/>
<path d="M4592 4945 c3 -3 45 -10 94 -15 49 -6 103 -13 119 -16 17 -4 27 -3
24 0 -7 8 -173 36 -213 36 -16 0 -27 -2 -24 -5z"/>
<path d="M5920 5413 c-214 -19 -510 -68 -750 -124 -297 -69 -295 -69 -410 -82
-135 -16 -200 -8 -257 32 -24 17 -49 31 -56 31 -25 0 84 -68 130 -80 37 -11
67 -11 147 -2 56 6 112 14 126 17 14 3 41 8 60 11 19 3 44 8 55 11 11 4 25 8
30 9 44 9 63 14 83 18 12 4 32 8 45 12 12 3 33 7 47 10 14 3 34 8 45 11 36 12
60 17 155 33 109 18 124 21 150 26 14 2 34 6 45 8 11 2 40 7 65 10 25 3 68 9
95 12 59 8 68 9 160 19 86 9 117 8 151 -5 31 -12 44 -6 17 8 -23 12 -88 19
-133 15z"/>
</g>
</svg>
