<svg class="img-fluid" id="outputsvg" xmlns="http://www.w3.org/2000/svg" style="transform: none; transform-origin: 50% 50%; cursor: move; max-height: none;" width="376" height="466" viewBox="0 0 3760 4660"><g id="l4nV5IhBM62aTiyMUgp64y" fill="rgb(178,187,198)" style="transform: none;"><g style="transform: none;"><path id="p1DEw2ba85" d="M725 4313 c-65 -6 -136 -33 -205 -79 -84 -55 -132 -116 -173 -223 l-22 -56 0 -1350 c0 -1294 1 -1352 19 -1405 42 -123 111 -207 218 -265 29 -16 56 -33 59 -37 3 -5 12 -8 20 -7 8 1 60 -1 116 -5 l102 -8 6 -57 c17 -152 87 -267 209 -348 107 -71 58 -68 1076 -68 l915 0 64 29 c176 79 261 196 282 385 6 62 9 551 7 1381 l-3 1285 -29 65 c-41 90 -81 144 -141 189 -62 47 -148 86 -172 77 -9 -4 -19 -2 -23 3 -3 6 -42 13 -87 17 -80 7 -81 7 -87 37 -3 16 -6 42 -6 57 0 74 -79 224 -147 278 -72 56 -156 94 -235 103 -69 8 -1679 10 -1763 2z m-1 -104 c10 16 1756 16 1756 0 0 -7 9 -9 23 -5 15 3 45 -5 83 -23 92 -44 166 -135 181 -226 14 -83 0 -2738 -14 -2742 -7 -3 -9 -11 -6 -19 3 -8 0 -14 -7 -14 -6 0 -9 -4 -6 -9 8 -12 -64 -103 -104 -131 -17 -12 -55 -30 -85 -41 -52 -18 -93 -19 -943 -19 -879 0 -889 0 -951 21 -76 26 -164 106 -202 184 l-24 50 -3 1345 c-2 1255 -1 1348 15 1395 23 67 64 126 116 169 46 38 148 79 158 63 4 -5 9 -5 13 2z m2276 -479 c0 -7 13 -8 34 -5 69 13 206 -86 247 -181 11 -24 18 -48 14 -53 -3 -5 1 -11 7 -13 10 -4 13 -282 13 -1364 l0 -1359 -34 -63 c-38 -71 -101 -131 -170 -165 l-46 -22 -915 0 c-1056 0 -978 -7 -1080 95 -67 67 -96 125 -106 210 l-7 60 727 0 c747 0 826 3 911 40 51 22 159 98 171 121 5 9 22 35 38 59 15 24 38 68 49 99 22 56 22 58 25 1304 l3 1247 59 0 c35 0 60 -4 60 -10z"></path></g></g></svg>